<?xml version="1.0" encoding="utf-8"?><svg xmlns="http://www.w3.org/2000/svg" xmlns:xlink="http://www.w3.org/1999/xlink" width="1920" height="975" preserveAspectRatio="xMidYMid" viewBox="0 0 1920 975" style="z-index:1;margin-right:-2px;display:block;background-repeat-y:initial;background-repeat-x:initial;background-color:rgb(255, 255, 255);animation-play-state:paused" ><g transform="translate(960,487.5) scale(1,1) translate(-960,-487.5)" style="transform:matrix(1, 0, 0, 1, 0, 0);animation-play-state:paused" ><g transform="translate(1420.0156551840787,-2.3669176271885703) scale(100)" opacity="0.4" style="transform:matrix(100, 0, 0, 100, 1420.02, -2.36692);opacity:0.4;animation-play-state:paused" ><path d="M6.5184 0 C6.5184 0.8063999999999999 6.894463877213088 1.012519316262103 6.685752199242415 1.7914419025816075 S6.048299992028485 2.560837114388228 5.645099992028485 3.2591999999999994 S5.46452120500964 4.324099388311975 4.894310296660808 4.894310296660807 S3.9575628856117717 5.241899992028484 3.2592000000000008 5.645099992028484 S2.5703644889011135 6.477040521271742 1.791441902581609 6.6857521992424145 S0.8064000000000003 6.5184 3.9913688477810534e-16 6.5184 S-1.012519316262102 6.894463877213088 -1.7914419025816066 6.685752199242415 S-2.560837114388227 6.048299992028485 -3.2591999999999985 5.645099992028485 S-4.324099388311975 5.46452120500964 -4.894310296660807 4.894310296660808 S-5.2418999920284834 3.957562885611773 -5.6450999920284834 3.259200000000002 S-6.477040521271742 2.570364488901114 -6.6857521992424145 1.7914419025816095 S-6.5184 0.8064000000000007 -6.5184 7.982737695562107e-16 S-6.894463877213088 -1.0125193162621002 -6.685752199242415 -1.7914419025816049 S-6.048299992028486 -2.5608371143882267 -5.645099992028486 -3.259199999999998 S-5.464521205009641 -4.324099388311972 -4.89431029666081 -4.894310296660804 S-3.957562885611774 -5.2418999920284834 -3.259200000000003 -5.6450999920284834 S-2.5703644889011175 -6.47704052127174 -1.7914419025816128 -6.685752199242414 S-0.8064000000000011 -6.5184 -1.197410654334316e-15 -6.5184 S1.0125193162620998 -6.894463877213088 1.7914419025816044 -6.685752199242415 S2.560837114388224 -6.048299992028486 3.2591999999999954 -5.645099992028487 S4.324099388311974 -5.46452120500964 4.894310296660806 -4.894310296660808 S5.241899992028483 -3.957562885611774 5.645099992028483 -3.259200000000003 S6.47704052127174 -2.5703644889011175 6.685752199242414 -1.7914419025816133 S6.5184 -0.8064000000000014 6.5184 -1.5965475391124214e-15" fill="#ff00ff" stroke-width="0" transform="matrix(1,0,0,1,0,0)" style="transform:matrix(1, 0, 0, 1, 0, 0);animation-play-state:paused" ></path></g></g></svg>